# xmcd CD database file
# Generated: Tue Aug 26 20:01:36 2003 by KSCD
# 
# Track frame offsets:
#       150
#       16801
#       43687
#       58633
#       85959
#       142330
#       172666
#       194319
#       215374
#       236092
#       258654
#       268606
#       286180
#       303123
#       318610
#       337602
#
# Disc length: 4669 seconds
#
# Revision: 2
# Processed by: cddbd v1.4PL0 Copyright (c) Steve Scherf et al.
# Submitted via: Kscd 1.3.3
#
DISCID=e0123b10
DTITLE=Keith Urban - Raining On Monday
DYEAR=1900
DGENRE=
TTITLE0=
TTITLE1=
TTITLE2=
TTITLE3=
TTITLE4=
TTITLE5=
TTITLE6=Keith Urban - Raining on Monday
TTITLE7=
TTITLE8=
TTITLE9=
TTITLE10=
TTITLE11=
TTITLE12=
TTITLE13=
TTITLE14=
TTITLE15=
EXTD=
EXTT0=
EXTT1=
EXTT2=
EXTT3=
EXTT4=
EXTT5=
EXTT6=
EXTT7=
EXTT8=
EXTT9=
EXTT10=
EXTT11=
EXTT12=
EXTT13=
EXTT14=
EXTT15=
PLAYORDER=
